# Blender v2.79 (sub 0) OBJ File: 'eixo1.SLDPRT'
# www.blender.org
mtllib eixo1.mtl
o eixo1
v 0.966587 8.069423 -0.525225
v 0.968331 8.069423 -0.484165
v 0.968331 0.000000 -0.484165
v 0.966587 0.000000 -0.443105
v 0.966587 0.000000 -0.525225
v 0.952708 0.000000 -0.606164
v 0.952708 8.069423 -0.606164
v 0.925351 0.000000 -0.683594
v 0.925351 8.069423 -0.683594
v 0.885301 0.000000 -0.755286
v 0.885301 8.069423 -0.755286
v 0.833712 0.000000 -0.819178
v 0.833712 8.069423 -0.819178
v 0.772066 0.000000 -0.873433
v 0.772066 8.069423 -0.873433
v 0.702138 0.000000 -0.916489
v 0.702138 8.069423 -0.916489
v 0.625940 0.000000 -0.947108
v 0.625940 8.069423 -0.947108
v 0.545663 0.000000 -0.964409
v 0.545663 8.069423 -0.964409
v 0.463617 0.000000 -0.967894
v 0.463617 8.069423 -0.967894
v 0.382162 0.000000 -0.957464
v 0.382162 8.069423 -0.957464
v 0.303641 0.000000 -0.933417
v 0.303641 8.069423 -0.933417
v 0.230314 0.000000 -0.896446
v 0.230314 8.069423 -0.896446
v 0.164290 0.000000 -0.847615
v 0.164290 8.069423 -0.847615
v 0.107467 0.000000 -0.788328
v 0.107467 8.069423 -0.788328
v 0.061482 0.000000 -0.720290
v 0.061482 8.069423 -0.720290
v 0.027657 0.000000 -0.645460
v 0.027657 8.069423 -0.645460
v 0.006964 0.000000 -0.565990
v 0.006964 8.069423 -0.565990
v 0.000000 0.000000 -0.484165
v 0.000000 8.069423 -0.484165
v 0.006964 0.000000 -0.402341
v 0.006964 8.069423 -0.402341
v 0.027657 0.000000 -0.322871
v 0.027657 8.069423 -0.322871
v 0.061482 0.000000 -0.248040
v 0.061482 8.069423 -0.248040
v 0.107467 0.000000 -0.180003
v 0.107467 8.069423 -0.180003
v 0.164290 0.000000 -0.120716
v 0.164290 8.069423 -0.120716
v 0.230314 0.000000 -0.071884
v 0.230314 8.069423 -0.071884
v 0.303641 0.000000 -0.034914
v 0.303641 8.069423 -0.034914
v 0.382162 0.000000 -0.010867
v 0.382162 8.069423 -0.010867
v 0.463617 0.000000 -0.000436
v 0.463617 8.069423 -0.000436
v 0.545663 0.000000 -0.003922
v 0.545663 8.069423 -0.003922
v 0.625940 0.000000 -0.021223
v 0.625940 8.069423 -0.021223
v 0.702138 0.000000 -0.051842
v 0.702138 8.069423 -0.051842
v 0.772066 0.000000 -0.094898
v 0.772066 8.069423 -0.094898
v 0.833712 0.000000 -0.149153
v 0.833712 8.069423 -0.149153
v 0.885301 0.000000 -0.213045
v 0.885301 8.069423 -0.213045
v 0.925351 0.000000 -0.284737
v 0.925351 8.069423 -0.284737
v 0.952708 0.000000 -0.362166
v 0.952708 8.069423 -0.362166
v 0.966587 8.069423 -0.443105
vn 0.9991 0.0000 -0.0424
vn 0.9991 0.0000 0.0424
vn 0.9856 0.0000 -0.1690
vn 0.9429 0.0000 -0.3331
vn 0.8730 0.0000 -0.4877
vn 0.7780 0.0000 -0.6282
vn 0.6607 0.0000 -0.7507
vn 0.5243 0.0000 -0.8515
vn 0.3729 0.0000 -0.9279
vn 0.2107 0.0000 -0.9776
vn 0.0424 0.0000 -0.9991
vn -0.1270 0.0000 -0.9919
vn -0.2928 0.0000 -0.9562
vn -0.4502 0.0000 -0.8929
vn -0.5946 0.0000 -0.8040
vn -0.7220 0.0000 -0.6919
vn -0.8285 0.0000 -0.5600
vn -0.9112 0.0000 -0.4119
vn -0.9677 0.0000 -0.2520
vn -0.9964 0.0000 -0.0848
vn -0.9964 0.0000 0.0848
vn -0.9677 0.0000 0.2520
vn -0.9112 0.0000 0.4119
vn -0.8285 0.0000 0.5600
vn -0.7220 0.0000 0.6919
vn -0.5946 0.0000 0.8040
vn -0.4502 0.0000 0.8929
vn -0.2928 0.0000 0.9562
vn -0.1270 0.0000 0.9919
vn 0.0424 0.0000 0.9991
vn 0.2107 0.0000 0.9776
vn 0.3729 0.0000 0.9279
vn 0.5243 0.0000 0.8515
vn 0.6607 0.0000 0.7507
vn 0.7780 0.0000 0.6282
vn 0.8730 0.0000 0.4877
vn 0.9429 0.0000 0.3331
vn 0.9856 0.0000 0.1690
vn 0.0000 1.0000 -0.0000
vn 0.0000 -1.0000 0.0000
usemtl None
s off
f 1//1 2//1 3//1
f 3//2 2//2 4//2
f 3//1 5//1 1//1
f 1//3 5//3 6//3
f 1//3 6//3 7//3
f 7//4 6//4 8//4
f 7//4 8//4 9//4
f 9//5 8//5 10//5
f 9//5 10//5 11//5
f 11//6 10//6 12//6
f 11//6 12//6 13//6
f 13//7 12//7 14//7
f 13//7 14//7 15//7
f 15//8 14//8 16//8
f 15//8 16//8 17//8
f 17//9 16//9 18//9
f 17//9 18//9 19//9
f 19//10 18//10 20//10
f 19//10 20//10 21//10
f 21//11 20//11 22//11
f 21//11 22//11 23//11
f 23//12 22//12 24//12
f 23//12 24//12 25//12
f 25//13 24//13 26//13
f 25//13 26//13 27//13
f 27//14 26//14 28//14
f 27//14 28//14 29//14
f 29//15 28//15 30//15
f 29//15 30//15 31//15
f 31//16 30//16 32//16
f 31//16 32//16 33//16
f 33//17 32//17 34//17
f 33//17 34//17 35//17
f 35//18 34//18 36//18
f 35//18 36//18 37//18
f 37//19 36//19 38//19
f 37//19 38//19 39//19
f 39//20 38//20 40//20
f 39//20 40//20 41//20
f 41//21 40//21 42//21
f 41//21 42//21 43//21
f 43//22 42//22 44//22
f 43//22 44//22 45//22
f 45//23 44//23 46//23
f 45//23 46//23 47//23
f 47//24 46//24 48//24
f 47//24 48//24 49//24
f 49//25 48//25 50//25
f 49//25 50//25 51//25
f 51//26 50//26 52//26
f 51//26 52//26 53//26
f 53//27 52//27 54//27
f 53//27 54//27 55//27
f 55//28 54//28 56//28
f 55//28 56//28 57//28
f 57//29 56//29 58//29
f 57//29 58//29 59//29
f 59//30 58//30 60//30
f 59//30 60//30 61//30
f 61//31 60//31 62//31
f 61//31 62//31 63//31
f 63//32 62//32 64//32
f 63//32 64//32 65//32
f 65//33 64//33 66//33
f 65//33 66//33 67//33
f 67//34 66//34 68//34
f 67//34 68//34 69//34
f 69//35 68//35 70//35
f 69//35 70//35 71//35
f 71//36 70//36 72//36
f 71//36 72//36 73//36
f 73//37 72//37 74//37
f 73//37 74//37 75//37
f 75//38 74//38 4//38
f 75//38 4//38 76//38
f 76//2 4//2 2//2
f 41//39 2//39 1//39
f 51//39 53//39 76//39
f 76//39 53//39 55//39
f 76//39 55//39 57//39
f 45//39 47//39 76//39
f 76//39 47//39 49//39
f 76//39 49//39 51//39
f 57//39 59//39 76//39
f 76//39 59//39 61//39
f 76//39 61//39 75//39
f 2//39 41//39 76//39
f 76//39 41//39 43//39
f 76//39 43//39 45//39
f 1//39 7//39 41//39
f 41//39 7//39 9//39
f 41//39 9//39 11//39
f 25//39 27//39 29//39
f 37//39 21//39 35//39
f 35//39 21//39 33//39
f 17//39 19//39 41//39
f 41//39 19//39 21//39
f 41//39 21//39 39//39
f 39//39 21//39 37//39
f 63//39 65//39 67//39
f 21//39 23//39 33//39
f 33//39 23//39 25//39
f 33//39 25//39 31//39
f 31//39 25//39 29//39
f 67//39 69//39 63//39
f 63//39 69//39 71//39
f 63//39 71//39 61//39
f 61//39 71//39 73//39
f 61//39 73//39 75//39
f 11//39 13//39 41//39
f 41//39 13//39 15//39
f 41//39 15//39 17//39
f 40//40 3//40 4//40
f 3//40 40//40 5//40
f 5//40 40//40 38//40
f 5//40 38//40 36//40
f 52//40 4//40 74//40
f 52//40 50//40 4//40
f 4//40 50//40 48//40
f 4//40 48//40 46//40
f 36//40 34//40 5//40
f 5//40 34//40 32//40
f 5//40 32//40 30//40
f 30//40 28//40 5//40
f 5//40 28//40 26//40
f 5//40 26//40 24//40
f 24//40 22//40 5//40
f 5//40 22//40 20//40
f 5//40 20//40 6//40
f 6//40 20//40 18//40
f 64//40 62//40 66//40
f 66//40 62//40 60//40
f 66//40 60//40 68//40
f 68//40 60//40 70//40
f 70//40 60//40 58//40
f 70//40 58//40 56//40
f 74//40 72//40 52//40
f 52//40 72//40 70//40
f 52//40 70//40 54//40
f 54//40 70//40 56//40
f 46//40 44//40 4//40
f 4//40 44//40 42//40
f 4//40 42//40 40//40
f 14//40 12//40 10//40
f 18//40 16//40 6//40
f 6//40 16//40 14//40
f 6//40 14//40 8//40
f 8//40 14//40 10//40
